PathFileType	4	(X/Y/Z)	9_1_44_p0_0-179_filt_butterworth.trc
DataRate	CameraRate	NumFrames	NumMarkers	Units	OrigDataRate	OrigDataStartFrame	OrigNumFrames
60.0	60.0	7	27	m	60.0	111	179
Frame#	Time	RHip			RKnee			RAnkle			RBigToe			RSmallToe			RHeel			LHip			LKnee			LAnkle			LBigToe			LSmallToe			LHeel			Neck			Head			Nose			RShoulder			RElbow			RWrist			RThumb			RIndex			RPinky			LShoulder			LElbow			LWrist			LThumb			LIndex			LPinky			
		X1	Y1	Z1	X2	Y2	Z2	X3	Y3	Z3	X4	Y4	Z4	X5	Y5	Z5	X6	Y6	Z6	X7	Y7	Z7	X8	Y8	Z8	X9	Y9	Z9	X10	Y10	Z10	X11	Y11	Z11	X12	Y12	Z12	X13	Y13	Z13	X14	Y14	Z14	X15	Y15	Z15	X16	Y16	Z16	X17	Y17	Z17	X18	Y18	Z18	X19	Y19	Z19	X20	Y20	Z20	X21	Y21	Z21	X22	Y22	Z22	X23	Y23	Z23	X24	Y24	Z24	X25	Y25	Z25	X26	Y26	Z26	X27	Y27	Z27	
111	1.85	0.2651203718781039	0.4268180337962772	1.011797223591474	0.2339974659974307	0.365488302210156	1.4025852869161868	0.24982330599114824	0.5845470816790519	1.8615677935833044	0.2605215859301967	0.38120346518232967	1.8652556412325028	0.3108048857225799	0.4441849635214152	1.8789458237310006	0.25116148935228	0.6801843681979528	1.9361567675360287	0.07736623096195626	0.46458324711871146	1.0230303141453887	0.08218411768716327	0.49809368484905436	1.461018105466821	0.09036881559090473	0.5639833618633288	1.8723669186422547	0.11767006662689457	0.40564477523349607	1.8940583647679825	0.05943558306939099	0.45707983050359646	1.9020591999497514	0.09901807014039611	0.6003850104631102	1.913160845414453	0.15805745141678026	0.40813420331541406	0.4873626129885048	0.1392480963945968	0.339338714564918	0.2535382075084772	0.1677111590709368	0.25974215699461556	0.36236631764913146	0.3190853989242583	0.4005645153989654	0.580815361705272	0.3832538633240747	0.46971509619475393	0.8227490128422124	0.41678751632929006	0.4974806726645901	1.0911419064033665	0.4156648485731546	0.3529559083901182	1.1709106294433738	0.43125434657237477	0.360542614273047	1.1732990277881161	0.4432562183878964	0.45685778022257156	1.2012886243518008	0.0299224087273274	0.38451762841207254	0.5821823757814287	-0.015052902311371628	0.4635721666661299	0.8147995758026063	-0.04280949476193854	0.2945482123061029	0.8574907322344236	-0.04646098042860434	0.14867584221979926	0.825814931965501	-0.06209729967510478	0.1335619470549113	0.8360487377632337	-0.0511104596339355	0.15445289290948205	0.8901854673789
112	1.8666666666666667	0.26510167716152283	0.42690169234870673	1.0138958401237501	0.23565656075626754	0.36928058088178234	1.4054208788947264	0.2505443678918947	0.5828679033898264	1.8658047152677204	0.25875556024504376	0.3772295608431475	1.8663739653533513	0.3095764242213275	0.4413109575794471	1.880489349122838	0.25465838242880356	0.6804716386516542	1.9397167632442212	0.07756140720103578	0.46455421451511064	1.0249867247994429	0.08234771472623853	0.4982121852185096	1.459326062574153	0.09060571655951993	0.5650586168062546	1.8726595686045904	0.11699661327335495	0.4046041173712177	1.8946270581374098	0.05935383602617013	0.4564042601321259	1.901806548593693	0.09936943668535747	0.6030685838916331	1.9149670146125257	0.15958778573896487	0.4078759814276475	0.4894868540660494	0.1409373095845346	0.3396425295784284	0.253747577900301	0.17023304998878536	0.2557324642638332	0.3628577497662706	0.3199989621120015	0.3979220285418685	0.5808662746326348	0.38517025868096766	0.4739173605381296	0.8266988376209224	0.41649310851695853	0.49763835546591767	1.0920355545225386	0.413585290546138	0.3577673070630707	1.172598815153286	0.43126264421421684	0.36103157620482995	1.1734546066332046	0.4429152720951298	0.454591747935818	1.200700769894464	0.03347694647982467	0.3888555101382334	0.5823894333924057	-0.015184295928822644	0.4631701569096059	0.8183645377284513	-0.03773537535084847	0.2839011394952772	0.8442478268922188	-0.04429031488238944	0.14807619420264484	0.8110161751235229	-0.05583237786707456	0.13505641741075197	0.818093325019975	-0.049708411955499486	0.1532572644759621	0.8778757562402303
113	1.8833333333333333	0.2650858196496403	0.4270607142507318	1.0157275685506493	0.23762470970442817	0.37468502766920353	1.4071968632485494	0.25312272863007085	0.5766278648196738	1.8673861561147471	0.25654969139997275	0.37241669361719104	1.869235920752823	0.3080806614319598	0.44007098030284614	1.8827942356173624	0.2589876200772743	0.6793233464512382	1.9420729452718961	0.07770201661201996	0.46477256372435727	1.0275475666826246	0.08249209297980808	0.49780015398593763	1.4559469721971372	0.09122736137599328	0.568411601213919	1.8733647022978903	0.116863258053935	0.40400396343439116	1.8955147877048317	0.05970187175588744	0.45568315016408817	1.9017533781055393	0.1000093157220881	0.6006231197919744	1.9153367851338214	0.16163322367024907	0.406965239429303	0.4916018261356025	0.144051446061967	0.3401747081989778	0.25439229212218045	0.1728598866685488	0.2532398038977004	0.3645496941007826	0.3210804280714819	0.39466350202751915	0.5812691036322655	0.38772837215816164	0.4792795472789802	0.8314557611119382	0.4162582804393032	0.4973796127866042	1.094537217092314	0.41027694913046825	0.3645189513761781	1.1747794001625909	0.4304367503201853	0.3627141911158577	1.1744021496129604	0.4421929749515349	0.4535461168473838	1.200756707039486	0.03602352843551333	0.39403248084963605	0.583473065646815	-0.015171217846702053	0.4623946922064336	0.8221333387598823	-0.032268733888289595	0.2681997383723118	0.8355363974909562	-0.0428611535719567	0.14784010791700064	0.801746954549085	-0.05046810934679695	0.13565077143264034	0.8076051661330691	-0.04760096510154846	0.15405662688482366	0.8646119852352969
114	1.9	0.2649370927396894	0.4269437429458879	1.0171517086045678	0.24070388375575788	0.3831046789396333	1.4107621589783097	0.25686198023654483	0.5660660239711118	1.8666150216240274	0.25422171143963074	0.369008498310074	1.8721909410533946	0.30572995996358804	0.4391056797498154	1.8856693554407506	0.261871054624683	0.6755192342781982	1.9431649692988442	0.07766059039145422	0.46516481261611253	1.0300263537809693	0.08260413895015271	0.4990117533543872	1.4536931415452865	0.09218489068207969	0.5734940010686768	1.875165314954539	0.11670084382703824	0.40421868969188324	1.8962411131284544	0.059924702706891264	0.45552209470814237	1.9018771038999795	0.10100192853595841	0.594791125294514	1.9139760402082944	0.164213503159465	0.4063449889639949	0.4934678469415784	0.14796531878994051	0.3407060922665448	0.255632089170879	0.174783741233672	0.2536088993128971	0.36708599603064085	0.3224653898849073	0.3906159204440269	0.582090992526458	0.39009986863337637	0.4833687387047008	0.8362323985319877	0.4163082074890718	0.49685415956288104	1.0981838552469858	0.4054167091245101	0.37281244012112813	1.177459159474939	0.42792650700305945	0.3704012377642912	1.1783966438572013	0.4402588641956775	0.45773542432151654	1.203172649030131	0.03779994661013093	0.3980260093564734	0.5853444884983386	-0.015107228421899032	0.4615021616476258	0.8263509798521605	-0.027181968700480064	0.254664878210059	0.83044616695515	-0.04182092001198453	0.14774568456007678	0.7947837271642864	-0.04730605936003221	0.1360114960057991	0.8027880155964664	-0.044730879379611455	0.15415643799864232	0.8503836879438117
115	1.9166666666666667	0.2647619927376769	0.4267109260454592	1.0184406868481495	0.24506623338838046	0.39456283081964655	1.4165945915315923	0.2597781604643662	0.5555118632533342	1.8655260202616735	0.25228743631042516	0.36832896035454804	1.8738387054037218	0.3029228689852084	0.4376412017930791	1.888947180576911	0.2625654980585634	0.6701649789360634	1.944294525397886	0.07748926019699363	0.46551430324901416	1.0311996919082564	0.08271543584281274	0.503085534102562	1.453713374808429	0.0931244473288142	0.5780872017200139	1.8778438186704842	0.11629597014971253	0.40508625494789696	1.8959164510680735	0.05987969238528909	0.45597419582162557	1.9018254850777259	0.1018275014432796	0.5901280306850928	1.9124151743269866	0.1671502898554444	0.40656493431108215	0.4956993940849984	0.1521478072561433	0.3407915388436328	0.2575717940573652	0.1760582084721858	0.25663255309739647	0.3699324174547239	0.3240185359718866	0.3873593945234637	0.5834731419663337	0.3920080188500577	0.4852258255133809	0.8406161324882768	0.41666662342972094	0.4963878281473127	1.1019540620442438	0.3992970787914909	0.3822883399661652	1.1809286584598453	0.42375855940834456	0.3844990555940323	1.1858515449695874	0.43727046403618897	0.4686698648669997	1.209028477657426	0.039444710743235016	0.399952957445197	0.5872178545529138	-0.015077559397153464	0.4613129597289055	0.8317695382518759	-0.022942920071150164	0.2483284079456547	0.8283105229092763	-0.04095714657310087	0.14760983519136323	0.788535253313146	-0.046015901298910346	0.1364861671021616	0.8009688389026869	-0.04202042555225017	0.15304302265036673	0.8379527850977565
116	1.9333333333333331	0.2649768632132563	0.42675002241008564	1.0202999561094268	0.24967692949786457	0.40734627238704035	1.4239142528490487	0.26033754971100137	0.5503599145096729	1.8662183658380367	0.2514157235958737	0.3703342819590856	1.8743984086129997	0.30081106547238434	0.4363021519475941	1.8918767910336183	0.26223589143709336	0.6659827365630439	1.9463852980318013	0.07751516600689248	0.46556840613337447	1.0311012570232367	0.08299977871608287	0.5086537135187191	1.4555792961959229	0.09378440791596829	0.5807407067710667	1.880533136021595	0.11576675240718982	0.4059976828566251	1.893914572229066	0.05966020347099204	0.45678416235213853	1.9009789005774231	0.10186603235679896	0.5902947255351503	1.9128228403217569	0.1706940163565666	0.4075890733792752	0.4986135789987571	0.1567776949894003	0.33967050660749726	0.2601190934633057	0.17712639869385963	0.2609032014051731	0.3731154358888796	0.32599854697450986	0.3859591126728914	0.5856552312984502	0.39354971917768883	0.4857617288493831	0.8448061364064992	0.41711186202137457	0.4962661166963484	1.1052968263583003	0.3935322653881668	0.3902242295547169	1.184875985895997	0.41896558973455056	0.3983990342321037	1.1939045551551726	0.4344793092979076	0.48191389564293047	1.2169783402571035	0.04163479201593953	0.40101845482095905	0.5887400010041454	-0.01490311137153557	0.4621144728766048	0.8379010527481324	-0.019306242668606817	0.24796879622308932	0.8280489138925058	-0.03975739045011026	0.14719455033566634	0.7836847582808459	-0.04511019001603285	0.13722255324761454	0.800501329677803	-0.04041212907128391	0.15154764200504572	0.8296000241925188
117	1.95	0.26614107908537155	0.42754203203466956	1.0228815823098782	0.25324800532649494	0.4198649315210103	1.4320265550017577	0.2589914830911443	0.5530392226002795	1.8693677020577968	0.25233072923177663	0.3745700975788768	1.8752078733549349	0.30078362858392427	0.4368746267495387	1.8935230697861138	0.2620049499563231	0.664623292746973	1.9487680698009968	0.07833085401736671	0.4652969664669746	1.0306496034008297	0.08361615792785922	0.5128473733661053	1.4587148506241543	0.09411347388008394	0.5817453818799303	1.8823496714255765	0.11548150998535445	0.40607296254128045	1.8911558401587671	0.059535439849934285	0.4571683927865848	1.8987048266987352	0.10099536274142432	0.5967254994164043	1.9163167219066204	0.17509541676756663	0.40892354439443623	0.5014991710867295	0.1621808345759565	0.33683277058379235	0.26257149914548067	0.17827914703333028	0.26460227970986666	0.3764331671511993	0.32866027599519476	0.38583359574487464	0.5883141561840747	0.3945182333449218	0.48609526406674985	0.8497479125034463	0.41704745897629103	0.49589203596518344	1.108418280049019	0.38937802127254106	0.39341759970143664	1.18881672390539	0.4140494981628037	0.40542722593827046	1.1991508561691526	0.4321574986053335	0.49171455486164983	1.2241269800880819	0.04505394489900705	0.4039825871919053	0.5902848191319685	-0.013866571897456211	0.46323728306017414	0.8426939021888615	-0.016089281546150087	0.25003971585445944	0.8287540184780535	-0.037448465784205284	0.14579897061899277	0.7815111684241182	-0.042951423980264254	0.13794780736215112	0.8004943072772557	-0.03989686780652745	0.15007906517931524	0.8257791043852123
